<svg width="20" height="20" viewBox="0 0 20 20" fill="none" xmlns="http://www.w3.org/2000/svg">
	<g clip-path="url(#clip0_3_51)">
		<path d="M6.66667 12H1.33333C0.979711 12 0.640573 12.1405 0.390524 12.3905C0.140476 12.6406 0 12.9797 0 13.3333C0 13.687 0.140476 14.0261 0.390524 14.2761C0.640573 14.5262 0.979711 14.6667 1.33333 14.6667H5.33333V18.6667C5.33333 19.0203 5.47381 19.3594 5.72386 19.6095C5.97391 19.8595 6.31304 20 6.66667 20C7.02029 20 7.35943 19.8595 7.60948 19.6095C7.85952 19.3594 8 19.0203 8 18.6667V13.3333C8.0001 13.1582 7.96568 12.9848 7.89871 12.823C7.83174 12.6612 7.73353 12.5141 7.6097 12.3903C7.48587 12.2665 7.33884 12.1683 7.17703 12.1013C7.01522 12.0343 6.84179 11.9999 6.66667 12Z" fill="white" />
		<path d="M18.6667 12H13.3333C13.1582 11.9999 12.9848 12.0343 12.823 12.1013C12.6612 12.1683 12.5141 12.2665 12.3903 12.3903C12.2665 12.5141 12.1683 12.6612 12.1013 12.823C12.0343 12.9848 11.9999 13.1582 12 13.3333V18.6667C12 19.0203 12.1405 19.3594 12.3905 19.6095C12.6406 19.8595 12.9797 20 13.3333 20C13.687 20 14.0261 19.8595 14.2761 19.6095C14.5262 19.3594 14.6667 19.0203 14.6667 18.6667V14.6667H18.6667C19.0203 14.6667 19.3594 14.5262 19.6095 14.2761C19.8595 14.0261 20 13.687 20 13.3333C20 12.9797 19.8595 12.6406 19.6095 12.3905C19.3594 12.1405 19.0203 12 18.6667 12Z" fill="white" />
		<path d="M13.3333 8H18.6667C19.0203 8 19.3594 7.85952 19.6095 7.60948C19.8595 7.35943 20 7.02029 20 6.66667C20 6.31304 19.8595 5.97391 19.6095 5.72386C19.3594 5.47381 19.0203 5.33333 18.6667 5.33333H14.6667V1.33333C14.6667 0.979711 14.5262 0.640573 14.2761 0.390524C14.0261 0.140476 13.687 0 13.3333 0C12.9797 0 12.6406 0.140476 12.3905 0.390524C12.1405 0.640573 12 0.979711 12 1.33333V6.66667C11.9999 6.84179 12.0343 7.01522 12.1013 7.17703C12.1683 7.33884 12.2665 7.48587 12.3903 7.6097C12.5141 7.73353 12.6612 7.83174 12.823 7.89871C12.9848 7.96568 13.1582 8.0001 13.3333 8Z" fill="white" />
		<path d="M6.66667 2.14337e-07C6.49154 -9.91069e-05 6.31812 0.0343208 6.1563 0.101292C5.99449 0.168263 5.84747 0.266472 5.72364 0.390303C5.59981 0.514134 5.5016 0.661159 5.43463 0.822971C5.36765 0.984784 5.33323 1.15821 5.33333 1.33333V5.33333H1.33333C0.979711 5.33333 0.640573 5.47381 0.390524 5.72386C0.140476 5.97391 0 6.31304 0 6.66667C0 7.02029 0.140476 7.35943 0.390524 7.60947C0.640573 7.85952 0.979711 8 1.33333 8H6.66667C6.84179 8.0001 7.01522 7.96568 7.17703 7.89871C7.33884 7.83174 7.48587 7.73353 7.6097 7.6097C7.73353 7.48586 7.83174 7.33884 7.89871 7.17703C7.96568 7.01522 8.0001 6.84179 8 6.66667V1.33333C8.0001 1.15821 7.96568 0.984784 7.89871 0.822971C7.83174 0.661159 7.73353 0.514134 7.6097 0.390303C7.48587 0.266472 7.33884 0.168263 7.17703 0.101292C7.01522 0.0343208 6.84179 -9.91069e-05 6.66667 2.14337e-07V2.14337e-07Z" fill="white" />
	</g>
	<defs>
		<clipPath id="clip0_3_51">
			<rect width="20" height="20" fill="white" />
		</clipPath>
	</defs>
</svg>
