<svg width="18" height="18" viewBox="0 0 18 18" fill="none" xmlns="http://www.w3.org/2000/svg">
	<g clip-path="url(#clip0_3_51)">
		<path d="M6 10.8H1.2C0.88174 10.8 0.576515 10.9264 0.351472 11.1515C0.126428 11.3765 0 11.6817 0 12C0 12.3183 0.126428 12.6235 0.351472 12.8485C0.576515 13.0736 0.88174 13.2 1.2 13.2H4.8V16.8C4.8 17.1183 4.92643 17.4235 5.15147 17.6485C5.37652 17.8736 5.68174 18 6 18C6.31826 18 6.62348 17.8736 6.84853 17.6485C7.07357 17.4235 7.2 17.1183 7.2 16.8V12C7.20009 11.8424 7.16911 11.6863 7.10884 11.5407C7.04856 11.395 6.96018 11.2627 6.84873 11.1513C6.73728 11.0398 6.60496 10.9514 6.45933 10.8912C6.31369 10.8309 6.15761 10.7999 6 10.8Z" fill="white" />
		<path d="M16.8 10.8H12C11.8424 10.7999 11.6863 10.8309 11.5407 10.8912C11.395 10.9514 11.2627 11.0398 11.1513 11.1513C11.0398 11.2627 10.9514 11.395 10.8912 11.5407C10.8309 11.6863 10.7999 11.8424 10.8 12V16.8C10.8 17.1183 10.9264 17.4235 11.1515 17.6485C11.3765 17.8736 11.6817 18 12 18C12.3183 18 12.6235 17.8736 12.8485 17.6485C13.0736 17.4235 13.2 17.1183 13.2 16.8V13.2H16.8C17.1183 13.2 17.4235 13.0736 17.6485 12.8485C17.8736 12.6235 18 12.3183 18 12C18 11.6817 17.8736 11.3765 17.6485 11.1515C17.4235 10.9264 17.1183 10.8 16.8 10.8Z" fill="white" />
		<path d="M12 7.2H16.8C17.1183 7.2 17.4235 7.07357 17.6485 6.84853C17.8736 6.62348 18 6.31826 18 6C18 5.68174 17.8736 5.37652 17.6485 5.15147C17.4235 4.92643 17.1183 4.8 16.8 4.8H13.2V1.2C13.2 0.88174 13.0736 0.576515 12.8485 0.351472C12.6235 0.126428 12.3183 0 12 0C11.6817 0 11.3765 0.126428 11.1515 0.351472C10.9264 0.576515 10.8 0.88174 10.8 1.2V6C10.7999 6.15761 10.8309 6.31369 10.8912 6.45933C10.9514 6.60496 11.0398 6.73728 11.1513 6.84873C11.2627 6.96018 11.395 7.04856 11.5407 7.10884C11.6863 7.16911 11.8424 7.20009 12 7.2Z" fill="white" />
		<path d="M6 1.92903e-07C5.84239 -8.91962e-05 5.6863 0.0308887 5.54067 0.0911627C5.39504 0.151437 5.26272 0.239825 5.15127 0.351273C5.03982 0.462721 4.95144 0.595043 4.89116 0.740674C4.83089 0.886305 4.79991 1.04239 4.8 1.2V4.8H1.2C0.88174 4.8 0.576515 4.92643 0.351472 5.15147C0.126428 5.37652 0 5.68174 0 6C0 6.31826 0.126428 6.62348 0.351472 6.84853C0.576515 7.07357 0.88174 7.2 1.2 7.2H6C6.15761 7.20009 6.31369 7.16911 6.45933 7.10884C6.60496 7.04856 6.73728 6.96017 6.84873 6.84873C6.96018 6.73728 7.04856 6.60496 7.10884 6.45933C7.16911 6.31369 7.20009 6.15761 7.2 6V1.2C7.20009 1.04239 7.16911 0.886305 7.10884 0.740674C7.04856 0.595043 6.96018 0.462721 6.84873 0.351273C6.73728 0.239825 6.60496 0.151437 6.45933 0.0911627C6.31369 0.0308887 6.15761 -8.91962e-05 6 1.92903e-07V1.92903e-07Z" fill="white" />
	</g>
	<defs>
		<clipPath id="clip0_3_51">
			<rect width="18" height="18" fill="white" />
		</clipPath>
	</defs>
</svg>
