<svg width="18" height="18" viewBox="0 0 18 18" fill="none" xmlns="http://www.w3.org/2000/svg">
	<g clip-path="url(#clip0_2_7)">
		<path d="M6.34615 2.04032e-07H1.26923C1.10253 -9.43422e-05 0.937438 0.0326708 0.783406 0.0964221C0.629373 0.160173 0.489416 0.253661 0.371538 0.371538C0.253661 0.489416 0.160173 0.629373 0.0964221 0.783406C0.0326708 0.937438 -9.43422e-05 1.10253 2.04032e-07 1.26923V6.34615C2.04032e-07 6.68278 0.133722 7.00561 0.371749 7.24364C0.609776 7.48166 0.93261 7.61538 1.26923 7.61538C1.60585 7.61538 1.92869 7.48166 2.16671 7.24364C2.40474 7.00561 2.53846 6.68278 2.53846 6.34615V2.53846H6.34615C6.68278 2.53846 7.00561 2.40474 7.24364 2.16671C7.48166 1.92869 7.61538 1.60585 7.61538 1.26923C7.61538 0.93261 7.48166 0.609776 7.24364 0.371749C7.00561 0.133722 6.68278 2.04032e-07 6.34615 2.04032e-07V2.04032e-07Z" fill="white" />
		<path d="M6.34615 15.4615H2.53846V11.6538C2.53846 11.3172 2.40474 10.9944 2.16671 10.7564C1.92869 10.5183 1.60585 10.3846 1.26923 10.3846C0.93261 10.3846 0.609776 10.5183 0.371749 10.7564C0.133722 10.9944 2.04032e-07 11.3172 2.04032e-07 11.6538V16.7308C-9.43422e-05 16.8975 0.0326708 17.0626 0.0964221 17.2166C0.160173 17.3706 0.253661 17.5106 0.371538 17.6285C0.489416 17.7463 0.629373 17.8398 0.783406 17.9036C0.937438 17.9673 1.10253 18.0001 1.26923 18H6.34615C6.68278 18 7.00561 17.8663 7.24364 17.6282C7.48166 17.3902 7.61538 17.0674 7.61538 16.7308C7.61538 16.3941 7.48166 16.0713 7.24364 15.8333C7.00561 15.5953 6.68278 15.4615 6.34615 15.4615V15.4615Z" fill="white" />
		<path d="M16.7308 2.04032e-07H11.6538C11.3172 2.04032e-07 10.9944 0.133722 10.7564 0.371749C10.5183 0.609776 10.3846 0.93261 10.3846 1.26923C10.3846 1.60585 10.5183 1.92869 10.7564 2.16671C10.9944 2.40474 11.3172 2.53846 11.6538 2.53846H15.4615V6.34615C15.4615 6.68278 15.5953 7.00561 15.8333 7.24364C16.0713 7.48166 16.3941 7.61538 16.7308 7.61538C17.0674 7.61538 17.3902 7.48166 17.6282 7.24364C17.8663 7.00561 18 6.68278 18 6.34615V1.26923C18.0001 1.10253 17.9673 0.937438 17.9036 0.783406C17.8398 0.629373 17.7463 0.489416 17.6285 0.371538C17.5106 0.253661 17.3706 0.160173 17.2166 0.0964221C17.0626 0.0326708 16.8975 -9.43422e-05 16.7308 2.04032e-07Z" fill="white" />
		<path d="M16.7308 10.3846C16.5641 10.3845 16.399 10.4173 16.2449 10.481C16.0909 10.5448 15.951 10.6383 15.8331 10.7562C15.7152 10.874 15.6217 11.014 15.558 11.168C15.4942 11.3221 15.4614 11.4871 15.4615 11.6538V15.4615H11.6538C11.3172 15.4615 10.9944 15.5953 10.7564 15.8333C10.5183 16.0713 10.3846 16.3941 10.3846 16.7308C10.3846 17.0674 10.5183 17.3902 10.7564 17.6282C10.9944 17.8663 11.3172 18 11.6538 18H16.7308C16.8975 18.0001 17.0626 17.9673 17.2166 17.9036C17.3706 17.8398 17.5106 17.7463 17.6285 17.6285C17.7463 17.5106 17.8398 17.3706 17.9036 17.2166C17.9673 17.0626 18.0001 16.8975 18 16.7308V11.6538C18.0001 11.4871 17.9673 11.3221 17.9036 11.168C17.8398 11.014 17.7463 10.874 17.6285 10.7562C17.5106 10.6383 17.3706 10.5448 17.2166 10.481C17.0626 10.4173 16.8975 10.3845 16.7308 10.3846V10.3846Z" fill="white" />
	</g>
	<defs>
		<clipPath id="clip0_2_7">
			<rect width="18" height="18" fill="white" />
		</clipPath>
	</defs>
</svg>
