<svg width="20" height="20" viewBox="0 0 20 20" fill="none" xmlns="http://www.w3.org/2000/svg">
	<g clip-path="url(#clip0_2_7)">
		<path d="M7.05128 2.26702e-07H1.41026C1.22503 -0.000104825 1.0416 0.0363008 0.870451 0.107136C0.699303 0.17797 0.543796 0.281845 0.41282 0.41282C0.281845 0.543796 0.17797 0.699303 0.107136 0.870451C0.0363008 1.0416 -0.000104825 1.22503 2.26702e-07 1.41026V7.05128C2.26702e-07 7.42531 0.14858 7.78401 0.413055 8.04848C0.677529 8.31296 1.03623 8.46154 1.41026 8.46154C1.78428 8.46154 2.14298 8.31296 2.40746 8.04848C2.67193 7.78401 2.82051 7.42531 2.82051 7.05128V2.82051H7.05128C7.42531 2.82051 7.78401 2.67193 8.04848 2.40746C8.31296 2.14298 8.46154 1.78428 8.46154 1.41026C8.46154 1.03623 8.31296 0.677529 8.04848 0.413055C7.78401 0.14858 7.42531 2.26702e-07 7.05128 2.26702e-07V2.26702e-07Z" fill="white" />
		<path d="M7.05128 17.1795H2.82051V12.9487C2.82051 12.5747 2.67193 12.216 2.40746 11.9515C2.14298 11.687 1.78428 11.5385 1.41026 11.5385C1.03623 11.5385 0.677529 11.687 0.413055 11.9515C0.14858 12.216 2.26702e-07 12.5747 2.26702e-07 12.9487V18.5897C-0.000104825 18.775 0.0363008 18.9584 0.107136 19.1295C0.17797 19.3007 0.281845 19.4562 0.41282 19.5872C0.543796 19.7182 0.699303 19.822 0.870451 19.8929C1.0416 19.9637 1.22503 20.0001 1.41026 20H7.05128C7.42531 20 7.78401 19.8514 8.04848 19.5869C8.31296 19.3225 8.46154 18.9638 8.46154 18.5897C8.46154 18.2157 8.31296 17.857 8.04848 17.5925C7.78401 17.3281 7.42531 17.1795 7.05128 17.1795V17.1795Z" fill="white" />
		<path d="M18.5897 2.26702e-07H12.9487C12.5747 2.26702e-07 12.216 0.14858 11.9515 0.413055C11.687 0.677529 11.5385 1.03623 11.5385 1.41026C11.5385 1.78428 11.687 2.14298 11.9515 2.40746C12.216 2.67193 12.5747 2.82051 12.9487 2.82051H17.1795V7.05128C17.1795 7.42531 17.3281 7.78401 17.5925 8.04848C17.857 8.31296 18.2157 8.46154 18.5897 8.46154C18.9638 8.46154 19.3225 8.31296 19.5869 8.04848C19.8514 7.78401 20 7.42531 20 7.05128V1.41026C20.0001 1.22503 19.9637 1.0416 19.8929 0.870451C19.822 0.699303 19.7182 0.543796 19.5872 0.41282C19.4562 0.281845 19.3007 0.17797 19.1296 0.107136C18.9584 0.0363008 18.775 -0.000104825 18.5897 2.26702e-07Z" fill="white" />
		<path d="M18.5897 11.5385C18.4045 11.5384 18.2211 11.5748 18.0499 11.6456C17.8788 11.7164 17.7233 11.8203 17.5923 11.9513C17.4613 12.0823 17.3575 12.2378 17.2866 12.4089C17.2158 12.5801 17.1794 12.7635 17.1795 12.9487V17.1795H12.9487C12.5747 17.1795 12.216 17.3281 11.9515 17.5925C11.687 17.857 11.5385 18.2157 11.5385 18.5897C11.5385 18.9638 11.687 19.3225 11.9515 19.5869C12.216 19.8514 12.5747 20 12.9487 20H18.5897C18.775 20.0001 18.9584 19.9637 19.1296 19.8929C19.3007 19.822 19.4562 19.7182 19.5872 19.5872C19.7182 19.4562 19.822 19.3007 19.8929 19.1295C19.9637 18.9584 20.0001 18.775 20 18.5897V12.9487C20.0001 12.7635 19.9637 12.5801 19.8929 12.4089C19.822 12.2378 19.7182 12.0823 19.5872 11.9513C19.4562 11.8203 19.3007 11.7164 19.1296 11.6456C18.9584 11.5748 18.775 11.5384 18.5897 11.5385V11.5385Z" fill="white" />
	</g>
	<defs>
		<clipPath id="clip0_2_7">
			<rect width="20" height="20" fill="white" />
		</clipPath>
	</defs>
</svg>
