<svg width="18" height="18" viewBox="0 0 18 18" fill="none" xmlns="http://www.w3.org/2000/svg">
	<g clip-path="url(#clip0_3_19)">
		<path d="M17.1 0C17.3387 0 17.5676 0.105357 17.7364 0.292893C17.9052 0.48043 18 0.734784 18 1V8H16.2V2H1.8V16H7.2V18H0.9C0.661305 18 0.432387 17.8946 0.263604 17.7071C0.0948211 17.5196 0 17.2652 0 17V1C0 0.734784 0.0948211 0.48043 0.263604 0.292893C0.432387 0.105357 0.661305 0 0.9 0H17.1ZM17.1 10C17.3387 10 17.5676 10.1054 17.7364 10.2929C17.9052 10.4804 18 10.7348 18 11V17C18 17.2652 17.9052 17.5196 17.7364 17.7071C17.5676 17.8946 17.3387 18 17.1 18H9.9C9.6613 18 9.43239 17.8946 9.2636 17.7071C9.09482 17.5196 9 17.2652 9 17V11C9 10.7348 9.09482 10.4804 9.2636 10.2929C9.43239 10.1054 9.6613 10 9.9 10H17.1ZM16.2 12H10.8V16H16.2V12ZM4.2363 3.293L6.2613 5.543L8.1 3.5V9H3.15L4.9887 6.957L2.9637 4.707L4.2363 3.293V3.293Z" fill="white" />
	</g>
	<defs>
		<clipPath id="clip0_3_19">
			<rect width="18" height="18" fill="white" />
		</clipPath>
	</defs>
</svg>
