<svg width="20" height="20" viewBox="0 0 20 20" fill="none" xmlns="http://www.w3.org/2000/svg">
	<g clip-path="url(#clip0_3_23)">
		<path d="M19 0C19.2652 0 19.5196 0.117063 19.7071 0.325437C19.8946 0.533811 20 0.816426 20 1.11111V8.88889H18V2.22222H2V17.7778H8V20H1C0.734784 20 0.48043 19.8829 0.292893 19.6746C0.105357 19.4662 0 19.1836 0 18.8889V1.11111C0 0.816426 0.105357 0.533811 0.292893 0.325437C0.48043 0.117063 0.734784 0 1 0H19ZM19 11.1111C19.2652 11.1111 19.5196 11.2282 19.7071 11.4365C19.8946 11.6449 20 11.9275 20 12.2222V18.8889C20 19.1836 19.8946 19.4662 19.7071 19.6746C19.5196 19.8829 19.2652 20 19 20H11C10.7348 20 10.4804 19.8829 10.2929 19.6746C10.1054 19.4662 10 19.1836 10 18.8889V12.2222C10 11.9275 10.1054 11.6449 10.2929 11.4365C10.4804 11.2282 10.7348 11.1111 11 11.1111H19ZM18 13.3333H12V17.7778H18V13.3333ZM9.5 4.44444L7.457 6.71445L9.707 9.21445L8.293 10.7856L6.043 8.28556L4 10.5556V4.44444H9.5Z" fill="white" />
	</g>
	<defs>
		<clipPath id="clip0_3_23">
			<rect width="20" height="20" fill="white" />
		</clipPath>
	</defs>
</svg>
