<svg width="20" height="20" viewBox="0 0 20 20" fill="none" xmlns="http://www.w3.org/2000/svg">
	<g clip-path="url(#clip0_3_49)">
		<path d="M7.35973 2.94151L8.4796 1.2635C8.64426 1.0167 8.91438 0.869568 9.20273 0.869568H10.793C11.0802 0.869568 11.3495 1.01561 11.5144 1.2609L12.6225 2.90923M7.35973 2.94151C7.05416 3.3961 6.54623 3.61884 6.0071 3.57913M7.35973 2.94151C7.05268 3.39501 6.54623 3.62069 6.0071 3.57913M6.0071 3.57913L4.02564 3.44943C3.74298 3.43092 3.46901 3.55525 3.28936 3.78355L2.28458 5.06046C2.0941 5.30251 2.03498 5.62906 2.12772 5.92686L2.70552 7.78234M2.70552 7.78234C2.78387 8.04721 2.79389 8.33098 2.73783 8.59897M2.70552 7.78234C2.78498 8.04674 2.79463 8.32993 2.73746 8.60172M2.73783 8.59897C2.68102 8.8638 2.55923 9.11386 2.3784 9.31632M2.73783 8.59897L2.73746 8.60172M2.3784 9.31632L1.06915 10.7847C0.867927 11.0103 0.78861 11.3261 0.857927 11.6257L1.21258 13.1581C1.28168 13.4567 1.48928 13.6995 1.76583 13.8051L3.56471 14.4927C3.8157 14.5939 4.03254 14.7585 4.19665 14.9659M2.3784 9.31632C2.56034 9.11551 2.68102 8.86628 2.73746 8.60172M4.19665 14.9659C4.35965 15.1739 4.47067 15.4249 4.51374 15.6967M4.19665 14.9659C4.36114 15.1739 4.47253 15.4242 4.51374 15.6967M4.19665 14.9659L4.19405 14.9629C4.18328 14.9493 4.17178 14.9352 4.16063 14.9219M4.51374 15.6967L4.82004 17.6585C4.86696 17.959 5.0537 18.2159 5.31859 18.3441L6.75279 19.0384C7.00923 19.1625 7.30722 19.1509 7.55395 19.0069L9.23999 18.0233M9.23999 18.0233C9.47355 17.8866 9.73415 17.8179 9.99484 17.8177M9.23999 18.0233C9.33241 17.9685 9.42932 17.9247 9.52887 17.8918C9.67997 17.8419 9.8374 17.8173 9.99484 17.8177M9.99484 17.8177C10.1303 17.8179 10.2659 17.8366 10.3981 17.8735C10.521 17.9079 10.6405 17.9578 10.7537 18.0233M9.99484 17.8177C10.2566 17.8172 10.5188 17.8858 10.7537 18.0233M10.7537 18.0233L12.5188 19.0197C12.7666 19.1595 13.0636 19.1674 13.318 19.0407L14.7453 18.3299C15.0092 18.1984 15.1934 17.9389 15.2368 17.6373L15.5112 15.7312M15.5112 15.7312C15.5525 15.458 15.662 15.2051 15.8246 14.9952M15.5112 15.7312C15.551 15.4573 15.6612 15.2048 15.8246 14.9952M15.8246 14.9952C15.9861 14.7876 16.2003 14.6222 16.4498 14.5198M15.8246 14.9952C15.9857 14.7868 16.1992 14.6209 16.4498 14.5198M16.4498 14.5198L18.2673 13.7771C18.5387 13.6662 18.7398 13.4226 18.8048 13.1265L19.1446 11.5752C19.2092 11.2798 19.13 10.9701 18.9329 10.7475L17.6158 9.26038M17.6158 9.26038C17.4315 9.05718 17.3031 8.81447 17.2407 8.55646M17.6158 9.26038C17.5292 9.16548 17.455 9.06168 17.3945 8.95172C17.3254 8.82678 17.2738 8.69386 17.2407 8.55646M17.2407 8.55646C17.1795 8.30035 17.1832 8.02895 17.2608 7.76625L17.8305 5.86223C17.9189 5.56662 17.8586 5.24442 17.6699 5.00523L16.6899 3.7623C16.5082 3.53182 16.2304 3.40773 15.945 3.42953L13.9863 3.57913M13.9863 3.57913C13.7182 3.59887 13.4546 3.54563 13.2199 3.43107M13.9863 3.57913C13.7179 3.60001 13.4546 3.54633 13.2199 3.43107M13.2199 3.43107C12.9838 3.31507 12.7766 3.13667 12.6225 2.90923M13.2199 3.43107C12.9835 3.31549 12.7759 3.13757 12.6225 2.90923M2.73746 8.60172L2.7382 8.59769M12.9805 10.0657C12.9805 11.7789 11.6185 13.1677 9.9388 13.1677C8.25903 13.1677 6.8971 11.7789 6.8971 10.0657C6.8971 8.35246 8.25903 6.96367 9.9388 6.96367C11.6185 6.96367 12.9805 8.35246 12.9805 10.0657Z" stroke="white" stroke-width="2" />
	</g>
	<defs>
		<clipPath id="clip0_3_49">
			<rect width="20" height="20" fill="white" />
		</clipPath>
	</defs>
</svg>
